<svg width="20" height="26" viewBox="0 0 20 26" fill="none" xmlns="http://www.w3.org/2000/svg">
<path fill-rule="evenodd" clip-rule="evenodd" d="M5.5 13C5.5 13.2321 5.59219 13.4546 5.75628 13.6187C5.92038 13.7828 6.14294 13.875 6.375 13.875H16.5128L12.7555 17.6305C12.5912 17.7948 12.4989 18.0176 12.4989 18.25C12.4989 18.4824 12.5912 18.7052 12.7555 18.8695C12.9198 19.0338 13.1426 19.1261 13.375 19.1261C13.6074 19.1261 13.8302 19.0338 13.9945 18.8695L19.2445 13.6195C19.326 13.5382 19.3906 13.4417 19.4347 13.3354C19.4789 13.2291 19.5016 13.1151 19.5016 13C19.5016 12.8849 19.4789 12.7709 19.4347 12.6646C19.3906 12.5583 19.326 12.4618 19.2445 12.3805L13.9945 7.1305C13.8302 6.9662 13.6074 6.87389 13.375 6.87389C13.1426 6.87389 12.9198 6.9662 12.7555 7.1305C12.5912 7.2948 12.4989 7.51764 12.4989 7.75C12.4989 7.98236 12.5912 8.2052 12.7555 8.3695L16.5128 12.125H6.375C6.14294 12.125 5.92038 12.2172 5.75628 12.3813C5.59219 12.5454 5.5 12.7679 5.5 13ZM1.125 25.25C0.892936 25.25 0.670376 25.1578 0.506282 24.9937C0.342187 24.8296 0.25 24.6071 0.25 24.375V1.625C0.25 1.39294 0.342187 1.17038 0.506282 1.00628C0.670376 0.842187 0.892936 0.75 1.125 0.75C1.35706 0.75 1.57962 0.842187 1.74372 1.00628C1.90781 1.17038 2 1.39294 2 1.625V24.375C2 24.6071 1.90781 24.8296 1.74372 24.9937C1.57962 25.1578 1.35706 25.25 1.125 25.25Z" fill="black"/>
</svg>
