<svg width="62" height="29" viewBox="0 0 62 29" fill="none" xmlns="http://www.w3.org/2000/svg">
<path d="M0.5 4.99979C0.5 2.23836 2.73858 -0.000213623 5.5 -0.000213623H56.5C59.2614 -0.000213623 61.5 2.23836 61.5 4.99979V4.99979H0.5V4.99979Z" fill="#E9E4DE"/>
<path d="M15.465 17.6063V19.7483H7.59703V9.94832H15.283V12.0903H10.341V13.7423H14.695V15.8143H10.341V17.6063H15.465ZM29.7156 19.9443C28.6889 19.9443 27.7649 19.7297 26.9436 19.3003C26.1316 18.8617 25.4923 18.255 25.0256 17.4803C24.5589 16.7057 24.3256 15.8283 24.3256 14.8483C24.3256 13.8683 24.5589 12.991 25.0256 12.2163C25.4923 11.4417 26.1316 10.8397 26.9436 10.4103C27.7649 9.97165 28.6889 9.75232 29.7156 9.75232C30.6116 9.75232 31.4189 9.91099 32.1376 10.2283C32.8563 10.5457 33.4536 11.003 33.9296 11.6003L32.1656 13.1963C31.5309 12.431 30.7609 12.0483 29.8556 12.0483C29.3236 12.0483 28.8476 12.165 28.4276 12.3983C28.0169 12.6317 27.6949 12.963 27.4616 13.3923C27.2376 13.8123 27.1256 14.2977 27.1256 14.8483C27.1256 15.399 27.2376 15.889 27.4616 16.3183C27.6949 16.7383 28.0169 17.065 28.4276 17.2983C28.8476 17.5317 29.3236 17.6483 29.8556 17.6483C30.7609 17.6483 31.5309 17.2657 32.1656 16.5003L33.9296 18.0963C33.4536 18.6937 32.8563 19.151 32.1376 19.4683C31.4189 19.7857 30.6116 19.9443 29.7156 19.9443ZM51.8535 19.7483L51.8255 14.5543L49.3055 18.7823H48.0735L45.5675 14.6943V19.7483H43.0055V9.94832H45.2875L48.7315 15.6043L52.0915 9.94832H54.3735L54.4015 19.7483H51.8535Z" fill="#E9E4DE"/>
<path d="M0 23.4969H62V23.4969C62 26.2583 59.7614 28.4969 57 28.4969H0V23.4969Z" fill="#E9E4DE"/>
</svg>
