<svg width="50" height="51" viewBox="0 0 50 51" fill="none" xmlns="http://www.w3.org/2000/svg">
<path d="M38.9637 13.749V17.1907C38.9637 18.8623 37.6116 20.239 35.8907 20.239C34.1945 20.239 32.8178 18.8623 32.8178 17.1907V13.749C32.8178 12.934 33.1416 12.1524 33.7179 11.5761C34.2941 10.9998 35.0758 10.6761 35.8907 10.6761C37.6116 10.6761 38.9637 12.0528 38.9637 13.749ZM28.0732 16.5515V34.4236C28.0732 35.2386 27.7495 36.0202 27.1732 36.5965C26.5969 37.1728 25.8153 37.4965 25.0003 37.4965C24.1853 37.4965 23.4037 37.1728 22.8274 36.5965C22.2512 36.0202 21.9274 35.2386 21.9274 34.4236V16.5515C21.9274 14.8798 23.3041 13.4786 25.0003 13.4786C26.6966 13.4786 28.0732 14.8798 28.0732 16.5515ZM49.5837 23.779V27.2207C49.5837 28.8923 48.207 30.269 46.5107 30.269C44.8145 30.269 43.4378 28.8923 43.4378 27.2207V23.779C43.4378 22.0828 44.8145 20.7307 46.5107 20.7307C48.207 20.7307 49.5837 22.0828 49.5837 23.779ZM6.56283 23.779V27.2207C6.56283 28.8923 5.18616 30.269 3.48991 30.269C1.76908 30.269 0.416992 28.8923 0.416992 27.2207V23.779C0.416992 22.0828 1.76908 20.7307 3.48991 20.7307C5.18616 20.7307 6.56283 22.0828 6.56283 23.779ZM17.1828 33.809V37.2261C17.1828 38.8978 15.8062 40.2498 14.1099 40.2498C12.4137 40.2498 11.037 38.8978 11.037 37.2261V33.809C11.037 32.0882 12.4137 30.7361 14.1099 30.7361C14.9249 30.7361 15.7065 31.0598 16.2828 31.6361C16.8591 32.2124 17.1828 32.994 17.1828 33.809ZM28.0732 43.5932V47.0103C28.0732 47.8252 27.7495 48.6069 27.1732 49.1831C26.5969 49.7594 25.8153 50.0832 25.0003 50.0832C24.1853 50.0832 23.4037 49.7594 22.8274 49.1831C22.2512 48.6069 21.9274 47.8252 21.9274 47.0103V43.5932C21.9274 42.7782 22.2512 41.9966 22.8274 41.4203C23.4037 40.844 24.1853 40.5203 25.0003 40.5203C25.8153 40.5203 26.5969 40.844 27.1732 41.4203C27.7495 41.9966 28.0732 42.7782 28.0732 43.5932ZM28.0732 3.98942V7.4065C28.0732 8.22149 27.7495 9.0031 27.1732 9.57938C26.5969 10.1557 25.8153 10.4794 25.0003 10.4794C24.1853 10.4794 23.4037 10.1557 22.8274 9.57938C22.2512 9.0031 21.9274 8.22149 21.9274 7.4065V3.98942C21.9274 2.26859 23.3041 0.916504 25.0003 0.916504C25.8153 0.916504 26.5969 1.24026 27.1732 1.81654C27.7495 2.39282 28.0732 3.17443 28.0732 3.98942ZM38.9637 26.3357V37.2261C38.9637 38.9223 37.6116 40.2498 35.8907 40.2498C34.1945 40.2498 32.8178 38.9223 32.8178 37.2261V26.3357C32.8178 24.6148 34.1945 23.2628 35.8907 23.2628C37.6116 23.2628 38.9637 24.6148 38.9637 26.3357ZM17.1828 13.749V24.6394C17.1828 26.3603 15.8062 27.7123 14.1099 27.7123C13.7064 27.7123 13.3068 27.6329 12.934 27.4784C12.5611 27.324 12.2224 27.0976 11.937 26.8123C11.6517 26.527 11.4253 26.1882 11.2709 25.8154C11.1165 25.4426 11.037 25.043 11.037 24.6394V13.749C11.037 12.934 11.3607 12.1524 11.937 11.5761C12.5133 10.9998 13.2949 10.6761 14.1099 10.6761C14.9249 10.6761 15.7065 10.9998 16.2828 11.5761C16.8591 12.1524 17.1828 12.934 17.1828 13.749Z" fill="#414141"/>
</svg>
