<svg width="17" height="25" viewBox="0 0 17 25" fill="none" xmlns="http://www.w3.org/2000/svg">
<path d="M8.5 4.6875C8.7072 4.6875 8.90592 4.76981 9.05243 4.91632C9.19894 5.06284 9.28125 5.26155 9.28125 5.46875V8.59375C9.28125 8.80095 9.19894 8.99966 9.05243 9.14618C8.90592 9.29269 8.7072 9.375 8.5 9.375C8.2928 9.375 8.09409 9.29269 7.94757 9.14618C7.80106 8.99966 7.71875 8.80095 7.71875 8.59375V5.46875C7.71875 5.26155 7.80106 5.06284 7.94757 4.91632C8.09409 4.76981 8.2928 4.6875 8.5 4.6875ZM14.75 17.1875C14.75 18.8451 14.0915 20.4348 12.9194 21.6069C11.7473 22.779 10.1576 23.4375 8.5 23.4375C6.8424 23.4375 5.25268 22.779 4.08058 21.6069C2.90848 20.4348 2.25 18.8451 2.25 17.1875V7.8125C2.25 6.1549 2.90848 4.56519 4.08058 3.39308C5.25268 2.22098 6.8424 1.5625 8.5 1.5625C10.1576 1.5625 11.7473 2.22098 12.9194 3.39308C14.0915 4.56519 14.75 6.1549 14.75 7.8125V17.1875ZM8.5 0C6.428 0 4.44086 0.8231 2.97573 2.28823C1.5106 3.75336 0.6875 5.7405 0.6875 7.8125V17.1875C0.6875 19.2595 1.5106 21.2466 2.97573 22.7118C4.44086 24.1769 6.428 25 8.5 25C10.572 25 12.5591 24.1769 14.0243 22.7118C15.4894 21.2466 16.3125 19.2595 16.3125 17.1875V7.8125C16.3125 5.7405 15.4894 3.75336 14.0243 2.28823C12.5591 0.8231 10.572 0 8.5 0V0Z" fill="black"/>
</svg>
